<svg width="26" height="25" viewBox="0 0 26 25" fill="none" xmlns="http://www.w3.org/2000/svg">
<path d="M23.2143 0H2.78571C2.0469 0 1.33834 0.282206 0.815917 0.784535C0.293494 1.28687 0 1.96817 0 2.67857L0 22.3214C0 23.0318 0.293494 23.7131 0.815917 24.2155C1.33834 24.7178 2.0469 25 2.78571 25H10.7511V16.5006H7.09487V12.5H10.7511V9.45089C10.7511 5.9827 12.8984 4.06696 16.1873 4.06696C17.7624 4.06696 19.4095 4.33705 19.4095 4.33705V7.74107H17.5947C15.8066 7.74107 15.2489 8.80804 15.2489 9.90234V12.5H19.2406L18.6022 16.5006H15.2489V25H23.2143C23.9531 25 24.6617 24.7178 25.1841 24.2155C25.7065 23.7131 26 23.0318 26 22.3214V2.67857C26 1.96817 25.7065 1.28687 25.1841 0.784535C24.6617 0.282206 23.9531 0 23.2143 0V0Z" fill="black"/>
</svg>
