<svg width="31" height="23" viewBox="0 0 31 23" fill="none" xmlns="http://www.w3.org/2000/svg">
<path d="M30.3522 3.59872C29.9957 2.18218 28.9452 1.06657 27.6115 0.687964C25.194 0 15.5 0 15.5 0C15.5 0 5.80608 0 3.3885 0.687964C2.05475 1.06662 1.0043 2.18218 0.647775 3.59872C0 6.16628 0 11.5232 0 11.5232C0 11.5232 0 16.8802 0.647775 19.4478C1.0043 20.8643 2.05475 21.9334 3.3885 22.312C5.80608 23 15.5 23 15.5 23C15.5 23 25.1939 23 27.6115 22.312C28.9452 21.9334 29.9957 20.8643 30.3522 19.4478C31 16.8802 31 11.5232 31 11.5232C31 11.5232 31 6.16628 30.3522 3.59872V3.59872ZM12.3295 16.387V6.65952L20.4318 11.5234L12.3295 16.387V16.387Z" fill="black"/>
</svg>
